<svg width="601" height="597" viewBox="0 0 601 597" fill="none" xmlns="http://www.w3.org/2000/svg">
<path d="M116.629 5L179.264 68.5283L180.731 70.0186H403.759L468.777 5H488.263V70.0186H536.798V514.23H61.4502V70.0186H97.1641V5H116.629Z" fill="#3BA2F6" stroke="#164A78" stroke-width="10"/>
<path d="M247.143 514V591.912H150V553.837L166.04 543.412L168.315 541.934V514H247.143Z" fill="#F89C3B" stroke="#164A78" stroke-width="10"/>
<path d="M358 514V591.912H455.143V553.837L439.103 543.412L436.827 541.934V514H358Z" fill="#F89C3B" stroke="#164A78" stroke-width="10"/>
<path d="M595.85 332.608V408.158L564.562 438.642L539 421.349V273.424L595.85 332.608Z" fill="#3BA2F6" stroke="#164A78" stroke-width="10"/>
<path d="M5 331.608V407.158L36.2871 437.642L61.8496 420.349V272.424L5 331.608Z" fill="#3BA2F6" stroke="#164A78" stroke-width="10"/>
<path d="M113.227 119.385C113.227 117.175 115.018 115.385 117.227 115.385H243.264L295.624 158.451C297.12 159.681 299.282 159.663 300.757 158.408L351.322 115.385H481.022C483.231 115.385 485.022 117.175 485.022 119.385V305.065C485.022 307.274 483.231 309.065 481.022 309.065H440.15V337.656H456.296C458.506 337.656 460.296 339.446 460.296 341.656V465.543C460.296 467.752 458.506 469.543 456.296 469.543H444.15C441.941 469.543 440.15 471.333 440.15 473.543V509.231H301H161.762V473.543C161.762 471.333 159.971 469.543 157.762 469.543H143.784C141.575 469.543 139.784 467.752 139.784 465.543V341.656C139.784 339.446 141.575 337.656 143.784 337.656H157.762C159.971 337.656 161.762 335.865 161.762 333.656V309.065H117.227C115.018 309.065 113.227 307.274 113.227 305.065V119.385Z" fill="#FFEFC0"/>
<path d="M140.7 158.846C140.7 156.085 142.938 153.846 145.7 153.846H254.747C257.509 153.846 259.747 156.085 259.747 158.846V267.894C259.747 270.655 257.509 272.894 254.747 272.894H145.7C142.938 272.894 140.7 270.655 140.7 267.894V158.846Z" fill="#164A78"/>
<rect x="199.308" y="177.656" width="36.63" height="36.63" rx="5" fill="#FFEFC0"/>
<path d="M336.67 158.846C336.67 156.085 338.908 153.846 341.67 153.846H450.717C453.479 153.846 455.717 156.085 455.717 158.846V267.894C455.717 270.655 453.479 272.894 450.717 272.894H341.67C338.908 272.894 336.67 270.655 336.67 267.894V158.846Z" fill="#164A78"/>
<rect x="395.278" y="177.656" width="36.63" height="36.63" rx="5" fill="#FFEFC0"/>
<path d="M268.905 277.894C268.905 275.132 271.143 272.894 273.905 272.894H322.513C325.274 272.894 327.513 275.132 327.513 277.894V324.211C327.513 325.71 326.84 327.13 325.68 328.08L302.194 347.304C300.396 348.776 297.822 348.815 295.98 347.398L270.857 328.081C269.626 327.134 268.905 325.67 268.905 324.117V277.894Z" fill="#F89C3B"/>
<path d="M353.648 358.974C356.41 358.974 358.673 361.218 358.41 363.967C357.169 376.952 351.116 389.181 341.214 398.474C330.051 408.95 314.911 414.835 299.124 414.835C283.338 414.835 268.198 408.95 257.035 398.474C247.133 389.181 241.08 376.952 239.839 363.967C239.576 361.218 241.839 358.974 244.601 358.974L299.124 358.974H353.648Z" fill="#164A78"/>
<path d="M340.333 395.604C338.502 405.677 316.524 414.835 299.125 414.835C283.557 414.835 261.579 407.509 258.832 395.604C258.832 384.478 279.894 373.626 299.125 373.626C318.355 373.626 340.333 384.478 340.333 395.604Z" fill="#F89C3B"/>
</svg>
