<svg width="601" height="601" viewBox="0 0 601 601" fill="none" xmlns="http://www.w3.org/2000/svg">
<circle cx="300.365" cy="300.365" r="300.365" fill="#1A4E7A"/>
<circle cx="300.365" cy="300.365" r="300.365" fill="#1A4E7A"/>
<path d="M62 162C62 137.147 82.1472 117 107 117H218.76C226.22 117 233.412 119.779 238.933 124.795L302.838 182.853L359.512 125.849C365.143 120.185 372.8 117 380.786 117H494C518.853 117 539 137.147 539 162V375C539 457.843 471.843 525 389 525H302.838H212C129.157 525 62 457.843 62 375V162Z" fill="#FFEFC0"/>
<path d="M99.4119 170.674C99.4119 167.912 101.65 165.674 104.412 165.674H246.397C249.159 165.674 251.397 167.912 251.397 170.674V323C251.397 325.761 249.159 328 246.397 328H104.412C101.65 328 99.4119 325.761 99.4119 323V170.674Z" fill="#1A4E7A"/>
<rect x="174.235" y="198.139" width="46.7647" height="49.9466" rx="5" fill="#FFEFC0"/>
<path d="M350 171C350 168.239 352.239 166 355 166H497C499.761 166 502 168.239 502 171V323C502 325.761 499.761 328 497 328H355C352.239 328 350 325.761 350 323V171Z" fill="#1A4E7A"/>
<rect x="424.427" y="202.895" width="46.7647" height="57.2632" rx="5" fill="#FFEFC0"/>
<path d="M263.088 356.779C263.088 354.018 265.327 351.779 268.088 351.779H332.912C335.673 351.779 337.912 354.018 337.912 356.779V433.638C337.912 434.962 337.387 436.232 336.452 437.169L305.1 468.593C303.189 470.508 300.102 470.556 298.133 468.702L264.661 437.186C263.657 436.241 263.088 434.924 263.088 433.546V356.779Z" fill="#F89C3B"/>
</svg>
