<svg width="258" height="205" viewBox="0 0 258 205" fill="none" xmlns="http://www.w3.org/2000/svg">
<path d="M0 30C0 13.4314 13.4315 0 30 0H79.7575C86.8369 0 93.6882 2.50361 99.0998 7.06802L129.78 32.9457L156.414 8.07382C161.97 2.88566 169.288 0 176.89 0H227.04C243.609 0 257.04 13.4315 257.04 30V129.12C257.04 170.541 223.461 204.12 182.04 204.12H129.78H75C33.5786 204.12 0 170.541 0 129.12V30Z" fill="#FFEFC0"/>
<path d="M20.1599 29.3512C20.1599 26.5898 22.3985 24.3512 25.1599 24.3512H97.0599C99.8213 24.3512 102.06 26.5898 102.06 29.3512V112.459C102.06 115.22 99.8213 117.459 97.0599 117.459H25.1599C22.3985 117.459 20.1599 115.22 20.1599 112.459V29.3512Z" fill="#1A4E7A"/>
<rect x="60.48" y="42.9728" width="25.2" height="28.6484" rx="5" fill="#FFEFC0"/>
<path d="M154.98 29.3511C154.98 26.5896 157.219 24.3511 159.98 24.3511H231.88C234.641 24.3511 236.88 26.5897 236.88 29.3511V112.458C236.88 115.22 234.641 117.458 231.88 117.458H159.98C157.219 117.458 154.98 115.22 154.98 112.458V29.3511Z" fill="#1A4E7A"/>
<rect x="195.3" y="42.9727" width="25.2" height="28.6484" rx="5" fill="#FFEFC0"/>
<path d="M108.36 122.459C108.36 119.697 110.599 117.459 113.36 117.459H143.68C146.442 117.459 148.68 119.697 148.68 122.459V157.269C148.68 158.658 148.103 159.984 147.086 160.93L132.452 174.548C130.576 176.294 127.684 176.339 125.755 174.652L110.069 160.941C108.983 159.991 108.36 158.619 108.36 157.176V122.459Z" fill="#F89C3B"/>
</svg>
