<svg width="601" height="601" viewBox="0 0 601 601" fill="none" xmlns="http://www.w3.org/2000/svg">
<path d="M116.629 5L179.264 68.5283L180.732 70.0186H403.759L468.778 5H488.263V70.0186H536.798V514.23H61.4504V70.0186H97.1643V5H116.629Z" fill="#3B82F6" stroke="#164A78" stroke-width="10"/>
<path d="M244.674 517.82V595.732H147.531V557.657L163.571 547.232L165.846 545.754V517.82H244.674Z" fill="#F89C3B" stroke="#164A78" stroke-width="10"/>
<path d="M358.154 517.82V595.732H455.296V557.657L439.256 547.232L436.981 545.754V517.82H358.154Z" fill="#F89C3B" stroke="#164A78" stroke-width="10"/>
<path d="M595.85 332.608V408.158L564.562 438.642L539 421.349V273.424L595.85 332.608Z" fill="#3B82F6" stroke="#164A78" stroke-width="10"/>
<path d="M5.00012 331.608V407.158L36.2872 437.642L61.8497 420.349V272.424L5.00012 331.608Z" fill="#3B82F6" stroke="#164A78" stroke-width="10"/>
<path d="M113.227 119.385C113.227 117.175 115.018 115.385 117.227 115.385H243.263L295.624 158.451C297.12 159.681 299.282 159.663 300.757 158.408L351.322 115.385H481.022C483.231 115.385 485.022 117.175 485.022 119.385V305.065C485.022 307.274 483.231 309.065 481.022 309.065H440.15V337.656H456.296C458.505 337.656 460.296 339.446 460.296 341.656V465.543C460.296 467.752 458.505 469.543 456.296 469.543H444.15C441.941 469.543 440.15 471.333 440.15 473.543V509.231H301H161.762V473.543C161.762 471.333 159.971 469.543 157.762 469.543H143.784C141.575 469.543 139.784 467.752 139.784 465.543V341.656C139.784 339.446 141.575 337.656 143.784 337.656H157.762C159.971 337.656 161.762 335.865 161.762 333.656V309.065H117.227C115.018 309.065 113.227 307.274 113.227 305.065V119.385Z" fill="#FFEFC0"/>
<path d="M140.699 158.846C140.699 156.085 142.938 153.846 145.699 153.846H254.747C257.508 153.846 259.747 156.085 259.747 158.846V267.894C259.747 270.655 257.508 272.894 254.747 272.894H145.699C142.938 272.894 140.699 270.655 140.699 267.894V158.846Z" fill="#1A4E7A"/>
<rect x="199.308" y="177.656" width="36.63" height="36.63" rx="5" fill="#FFEFC0"/>
<path d="M347 159C347 156.239 349.239 154 352 154H461.048C463.809 154 466.048 156.239 466.048 159V268.048C466.048 270.809 463.809 273.048 461.048 273.048H352C349.239 273.048 347 270.809 347 268.048V159Z" fill="#1A4E7A"/>
<rect x="405.608" y="177.81" width="36.63" height="36.63" rx="5" fill="#FFEFC0"/>
<path d="M268.905 277.894C268.905 275.132 271.143 272.894 273.905 272.894H322.513C325.274 272.894 327.513 275.132 327.513 277.894V324.211C327.513 325.71 326.84 327.13 325.68 328.08L302.194 347.304C300.396 348.776 297.821 348.815 295.979 347.398L270.857 328.081C269.626 327.134 268.905 325.67 268.905 324.117V277.894Z" fill="#F89C3B"/>
<path d="M353.048 359C355.809 359 358.072 361.244 357.809 363.993C356.568 376.978 350.515 389.207 340.613 398.5C329.451 408.975 314.31 414.861 298.524 414.861C282.737 414.861 267.597 408.975 256.434 398.5C246.532 389.207 240.479 376.978 239.238 363.993C238.975 361.244 241.239 359 244 359L298.524 359H353.048Z" fill="#164A78"/>
<path d="M339.733 395.63C337.901 405.703 315.923 414.861 298.524 414.861C282.956 414.861 260.978 407.535 258.231 395.63C258.231 384.503 279.293 373.652 298.524 373.652C317.755 373.652 339.733 384.503 339.733 395.63Z" fill="#F89C3B"/>
</svg>
