<svg width="601" height="601" viewBox="0 0 601 601" fill="none" xmlns="http://www.w3.org/2000/svg">
<path d="M116.629 5L179.264 68.5283L180.732 70.0186H403.759L468.778 5H488.263V70.0186H536.798V514.23H61.4504V70.0186H97.1643V5H116.629Z" fill="#3B82F6" stroke="#164A78" stroke-width="10"/>
<path d="M244.674 517.82V595.732H147.531V557.657L163.571 547.232L165.846 545.754V517.82H244.674Z" fill="#F89C3B" stroke="#164A78" stroke-width="10"/>
<path d="M358.154 517.82V595.732H455.296V557.657L439.256 547.232L436.981 545.754V517.82H358.154Z" fill="#F89C3B" stroke="#164A78" stroke-width="10"/>
<path d="M595.85 332.608V408.158L564.562 438.642L539 421.349V273.424L595.85 332.608Z" fill="#3B82F6" stroke="#164A78" stroke-width="10"/>
<path d="M5 331.608V407.158L36.2871 437.642L61.8496 420.349V272.424L5 331.608Z" fill="#3B82F6" stroke="#164A78" stroke-width="10"/>
<path d="M113.227 119.385C113.227 117.175 115.018 115.385 117.227 115.385H243.264L295.624 158.451C297.12 159.681 299.282 159.663 300.757 158.408L351.322 115.385H481.022C483.231 115.385 485.022 117.175 485.022 119.385V305.065C485.022 307.274 483.231 309.065 481.022 309.065H440.15V337.656H456.296C458.506 337.656 460.296 339.446 460.296 341.656V465.543C460.296 467.752 458.506 469.543 456.296 469.543H444.15C441.941 469.543 440.15 471.333 440.15 473.543V509.231H301H161.762V473.543C161.762 471.333 159.971 469.543 157.762 469.543H143.784C141.575 469.543 139.784 467.752 139.784 465.543V341.656C139.784 339.446 141.575 337.656 143.784 337.656H157.762C159.971 337.656 161.762 335.865 161.762 333.656V309.065H117.227C115.018 309.065 113.227 307.274 113.227 305.065V119.385Z" fill="#FFEFC0"/>
<path d="M140.699 158.846C140.699 156.085 142.938 153.846 145.699 153.846H254.747C257.508 153.846 259.747 156.085 259.747 158.846V267.894C259.747 270.655 257.508 272.894 254.747 272.894H145.699C142.938 272.894 140.699 270.655 140.699 267.894V158.846Z" fill="#1A4E7A"/>
<rect x="199.308" y="177.656" width="36.63" height="36.63" rx="5" fill="#FFEFC0"/>
<path d="M268.905 277.894C268.905 275.132 271.143 272.894 273.905 272.894H322.513C325.274 272.894 327.513 275.132 327.513 277.894V324.211C327.513 325.71 326.84 327.13 325.68 328.08L302.194 347.304C300.396 348.776 297.821 348.815 295.979 347.398L270.857 328.081C269.626 327.134 268.905 325.67 268.905 324.117V277.894Z" fill="#F89C3B"/>
<path d="M353.648 358.974C356.41 358.974 358.673 361.218 358.41 363.967C357.169 376.952 351.116 389.181 341.214 398.474C330.051 408.95 314.911 414.835 299.124 414.835C283.338 414.835 268.198 408.95 257.035 398.474C247.133 389.181 241.08 376.952 239.839 363.967C239.576 361.218 241.839 358.974 244.601 358.974L299.124 358.974H353.648Z" fill="#164A78"/>
<path d="M340.333 395.604C338.502 405.677 316.524 414.835 299.124 414.835C283.557 414.835 261.579 407.509 258.831 395.604C258.831 384.478 279.894 373.626 299.124 373.626C318.355 373.626 340.333 384.478 340.333 395.604Z" fill="#F89C3B"/>
<path d="M356.376 202.956C361.366 182.522 392.633 165.127 395.445 163.836C398.258 162.545 401.857 161.524 402.802 160.895C403.747 160.266 428.154 152.455 440.541 160.895C446.392 164.882 452.444 174.629 452.444 174.629C452.444 174.629 453.6 177.732 454.144 179.779C456.125 187.233 456.694 191.797 454.994 199.522C454.587 201.373 453.295 202.154 451.593 202.956C449.487 203.948 447.944 203.281 445.642 202.956C436.331 201.638 432.078 188.793 427.789 186.646C423.5 184.5 414.123 183.283 406.535 186.646C398.755 190.095 394.951 194.944 392.082 202.956C389.483 210.214 395.233 215.666 392.082 222.698C389.666 228.092 387.185 231.279 381.88 233.857C375.606 236.907 370.477 236.515 364.027 233.857C361.125 232.661 359.472 231.764 357.226 229.565C349.808 222.306 353.909 213.054 356.376 202.956Z" fill="#1A4E7A"/>
</svg>
