<svg width="512" height="512" viewBox="0 0 512 512" fill="none" xmlns="http://www.w3.org/2000/svg">
<circle cx="256" cy="256" r="256" fill="#1A4E7A"/>
<circle cx="256" cy="256" r="256" fill="#1A4E7A"/>
<path d="M52 139C52 114.147 72.1472 94 97 94H185.351C192.432 94 199.285 96.5049 204.697 101.071L258.452 146.428L305.929 102.078C311.485 96.8871 318.805 94 326.408 94H415.896C440.749 94 460.896 114.147 460.896 139V318.828C460.896 374.057 416.124 418.828 360.896 418.828H258.452H152C96.7716 418.828 52 374.057 52 318.828V139Z" fill="#FFEFC0"/>
<path d="M84.0703 137.751C84.0703 134.99 86.3088 132.751 89.0703 132.751H209.356C212.117 132.751 214.356 134.99 214.356 137.751V275.919C214.356 278.68 212.117 280.919 209.356 280.919H89.0702C86.3088 280.919 84.0703 278.68 84.0703 275.919V137.751Z" fill="#1A4E7A"/>
<rect x="148.211" y="162.385" width="40.0878" height="45.5899" rx="5" fill="#FFEFC0"/>
<path d="M298.54 137.751C298.54 134.99 300.779 132.751 303.54 132.751H423.826C426.587 132.751 428.826 134.99 428.826 137.751V275.919C428.826 278.68 426.587 280.919 423.826 280.919H303.54C300.779 280.919 298.54 278.68 298.54 275.919V137.751Z" fill="#1A4E7A"/>
<rect x="362.681" y="162.385" width="40.0878" height="45.5899" rx="5" fill="#FFEFC0"/>
<path d="M224.378 285.919C224.378 283.157 226.616 280.919 229.378 280.919H283.518C286.28 280.919 288.518 283.157 288.518 285.919V345.56C288.518 346.948 287.941 348.274 286.925 349.219L260.752 373.584C258.876 375.33 255.984 375.375 254.054 373.688L226.086 349.231C225.001 348.281 224.378 346.909 224.378 345.467V285.919Z" fill="#F89C3B"/>
</svg>
